<svg width="426px" height="310px"
 viewBox="0.00 0.00 426.00 310.00" xmlns="http://www.w3.org/2000/svg" xmlns:xlink="http://www.w3.org/1999/xlink">
<g id="graph0" class="graph" transform="scale(1.0 1.0) rotate(0) translate(4 283)">
<title>区分図</title>
<polygon fill="white" stroke="transparent" points="-4,27 -4,-283 422,-283 422,27 -4,27"/>
<text text-anchor="middle" x="209" y="15.2" font-family="Times,serif" font-size="14.00">区分図</text>
<g id="clust1" class="cluster">
<title>cluster_example.domain.type</title>
<polygon fill="none" stroke="lightgray" points="-0.26,-46.14 -0.26,-279.14 228.74,-279.14 228.74,-46.14 -0.26,-46.14"/>
<text text-anchor="middle" x="114.24" y="-263.94" font-family="Times,serif" font-size="14.00">type</text>
</g>
<g id="clust2" class="cluster">
<title>cluster_example.domain.model</title>
<polygon fill="none" stroke="lightgray" points="276.24,0.36 276.24,-221.64 418.24,-221.64 418.24,0.36 276.24,0.36"/>
<text text-anchor="middle" x="347.24" y="-206.44" font-family="Times,serif" font-size="14.00">model</text>
</g>
<g id="clust3" class="cluster">
<title>cluster_example.domain.model.kit</title>
<polygon fill="none" stroke="lightgray" points="284.48,-7.78 284.48,-190.78 410.48,-190.78 410.48,-7.78 284.48,-7.78"/>
<text text-anchor="middle" x="347.48" y="-175.58" font-family="Times,serif" font-size="14.00">kit</text>
</g>
<g id="clust4" class="cluster">
<title>cluster_example.domain.model.kit.feature</title>
<polygon fill="none" stroke="lightgray" points="292.71,-15.42 292.71,-159.42 402.71,-159.42 402.71,-15.42 292.71,-15.42"/>
<text text-anchor="middle" x="347.71" y="-144.22" font-family="Times,serif" font-size="14.00">feature</text>
</g>
<!-- example.domain.type.Type -->
<g id="node1" class="node">
<title>example.domain.type.Type</title>
<polygon fill="#eedd82" stroke="black" points="114.48,-137.78 7.48,-137.78 7.48,-53.78 114.48,-53.78 114.48,-137.78"/>
<text text-anchor="start" x="46.98" y="-120.58" font-family="Times,serif" font-size="14.00">素材</text>
<text text-anchor="start" x="47.48" y="-105.58" font-family="Times,serif" font-size="14.00">Type</text>
<polygon fill="none" stroke="black" points="15.98,-78.78 15.98,-99.78 106.98,-99.78 106.98,-78.78 15.98,-78.78"/>
<text text-anchor="start" x="18.98" y="-85.58" font-family="Times,serif" font-size="14.00">プラスチック</text>
<polygon fill="none" stroke="black" points="15.98,-57.78 15.98,-78.78 106.98,-78.78 106.98,-57.78 15.98,-57.78"/>
<text text-anchor="start" x="46.98" y="-64.58" font-family="Times,serif" font-size="14.00">木製</text>
</g>
<!-- example.domain.type.Covered -->
<g id="node2" class="node">
<title>example.domain.type.Covered</title>
<polygon fill="#eedd82" stroke="black" points="220.98,-247.78 128.98,-247.78 128.98,-163.78 220.98,-163.78 220.98,-247.78"/>
<text text-anchor="start" x="138.98" y="-230.58" font-family="Times,serif" font-size="14.00">カバー有無</text>
<text text-anchor="start" x="151.98" y="-215.58" font-family="Times,serif" font-size="14.00">Covered</text>
<polygon fill="none" stroke="black" points="136.98,-188.78 136.98,-209.78 212.98,-209.78 212.98,-188.78 136.98,-188.78"/>
<text text-anchor="start" x="167.48" y="-195.58" font-family="Times,serif" font-size="14.00">有</text>
<polygon fill="none" stroke="black" points="136.98,-167.78 136.98,-188.78 212.98,-188.78 212.98,-167.78 136.98,-167.78"/>
<text text-anchor="start" x="167.48" y="-174.58" font-family="Times,serif" font-size="14.00">無</text>
</g>
<!-- example.domain.model.kit.feature.Feature -->
<g id="node3" class="node">
<title>example.domain.model.kit.feature.Feature</title>
<polygon fill="#eedd82" stroke="black" points="394.95,-128.56 300.95,-128.56 300.95,-23.56 394.95,-23.56 394.95,-128.56"/>
<text text-anchor="start" x="333.45" y="-110.86" font-family="Times,serif" font-size="14.00">特徴</text>
<text text-anchor="start" x="327.45" y="-95.86" font-family="Times,serif" font-size="14.00">Feature</text>
<polygon fill="none" stroke="black" points="308.95,-69.06 308.95,-90.06 386.95,-90.06 386.95,-69.06 308.95,-69.06"/>
<text text-anchor="start" x="311.95" y="-75.86" font-family="Times,serif" font-size="14.00">専用培養土</text>
<polygon fill="none" stroke="black" points="308.95,-48.06 308.95,-69.06 386.95,-69.06 386.95,-48.06 308.95,-48.06"/>
<text text-anchor="start" x="333.45" y="-54.86" font-family="Times,serif" font-size="14.00">肥料</text>
<polygon fill="none" stroke="black" points="308.95,-27.06 308.95,-48.06 386.95,-48.06 386.95,-27.06 308.95,-27.06"/>
<text text-anchor="start" x="317.45" y="-33.86" font-family="Times,serif" font-size="14.00">PH調整剤</text>
</g>
</g>
</svg>
