<svg width="382px" height="143px"
 viewBox="0.00 0.00 382.00 143.00" xmlns="http://www.w3.org/2000/svg" xmlns:xlink="http://www.w3.org/1999/xlink">
<g id="graph0" class="graph" transform="scale(1.0 1.0) rotate(0) translate(4 139)">
<title>パッケージ関連図</title>
<polygon fill="white" stroke="transparent" points="-4,4 -4,-139 378,-139 378,4 -4,4"/>
<text text-anchor="middle" x="187" y="-7.8" font-family="Times,serif" font-size="14.00">パッケージ関連図</text>
<!-- summary -->
<g id="node1" class="node">
<title>summary</title>
<polygon fill="none" stroke="black" points="110,-135 0,-135 0,-97 116,-97 116,-129 110,-135"/>
<polyline fill="none" stroke="black" points="110,-135 110,-129 "/>
<polyline fill="none" stroke="black" points="116,-129 110,-129 "/>
<text text-anchor="start" x="8" y="-119.8" font-family="Times,serif" font-size="14.00">パッケージ数: 2</text>
<text text-anchor="start" x="8" y="-104.8" font-family="Times,serif" font-size="14.00">関連数: 1</text>
</g>
<!-- example.domain.model -->
<g id="node2" class="node">
<title>example.domain.model</title>
<polygon fill="#eedd82" stroke="black" points="374,-135 134,-135 134,-97 374,-97 374,-135"/>
<text text-anchor="middle" x="254" y="-119.8" font-family="Times,serif" font-size="14.00">ドメインモデル（ビジネスルール）</text>
<text text-anchor="middle" x="254" y="-104.8" font-family="Times,serif" font-size="14.00">example.domain.model</text>
</g>
<!-- example.domain.type -->
<g id="node3" class="node">
<title>example.domain.type</title>
<polygon fill="#eedd82" stroke="black" points="321.5,-61 186.5,-61 186.5,-23 321.5,-23 321.5,-61"/>
<text text-anchor="middle" x="254" y="-45.8" font-family="Times,serif" font-size="14.00">基本型(primitives)</text>
<text text-anchor="middle" x="254" y="-30.8" font-family="Times,serif" font-size="14.00">example.domain.type</text>
</g>
<!-- example.domain.model&#45;&gt;example.domain.type -->
<g id="edge1" class="edge">
<title>example.domain.model&#45;&gt;example.domain.type</title>
<path fill="none" stroke="black" d="M254,-96.83C254,-89.13 254,-79.97 254,-71.42"/>
<polygon fill="black" stroke="black" points="257.5,-71.41 254,-61.41 250.5,-71.41 257.5,-71.41"/>
</g>
</g>
</svg>
