<svg width="381px" height="197px"
 viewBox="0.00 0.00 381.00 197.00" xmlns="http://www.w3.org/2000/svg" xmlns:xlink="http://www.w3.org/1999/xlink">
<g id="graph0" class="graph" transform="scale(1.0 1.0) rotate(0) translate(4 193)">
<title>パッケージ関連図</title>
<polygon fill="white" stroke="transparent" points="-4,4 -4,-193 377,-193 377,4 -4,4"/>
<text text-anchor="middle" x="186.5" y="-7.8" font-family="Times,serif" font-size="14.00">パッケージ関連図</text>
<g id="clust1" class="cluster">
<title>cluster_example.domain.model</title>
<polygon fill="lemonchiffon" stroke="#eedd82" stroke-width="2" points="125,-89 125,-181 365,-181 365,-89 125,-89"/>
<text text-anchor="middle" x="245" y="-165.8" font-family="Times,serif" font-size="14.00">ドメインモデル（ビジネスルール）</text>
<text text-anchor="middle" x="245" y="-150.8" font-family="Times,serif" font-size="14.00">example.domain.model</text>
</g>
<!-- summary -->
<g id="node1" class="node">
<title>summary</title>
<polygon fill="none" stroke="black" points="110,-135 0,-135 0,-97 116,-97 116,-129 110,-135"/>
<polyline fill="none" stroke="black" points="110,-135 110,-129 "/>
<polyline fill="none" stroke="black" points="116,-129 110,-129 "/>
<text text-anchor="start" x="8" y="-119.8" font-family="Times,serif" font-size="14.00">パッケージ数: 2</text>
<text text-anchor="start" x="8" y="-104.8" font-family="Times,serif" font-size="14.00">関連数: 1</text>
</g>
<!-- example.domain.model.kit -->
<g id="node2" class="node">
<title>example.domain.model.kit</title>
<polygon fill="#eedd82" stroke="black" points="310.5,-135 179.5,-135 179.5,-97 310.5,-97 310.5,-135"/>
<text text-anchor="middle" x="245" y="-119.8" font-family="Times,serif" font-size="14.00">ハーブ栽培キット</text>
<text text-anchor="middle" x="245" y="-104.8" font-family="Times,serif" font-size="14.00">kit</text>
</g>
<!-- example.domain.type -->
<g id="node3" class="node">
<title>example.domain.type</title>
<polygon fill="#eedd82" stroke="black" points="312.5,-61 177.5,-61 177.5,-23 312.5,-23 312.5,-61"/>
<text text-anchor="middle" x="245" y="-45.8" font-family="Times,serif" font-size="14.00">基本型(primitives)</text>
<text text-anchor="middle" x="245" y="-30.8" font-family="Times,serif" font-size="14.00">example.domain.type</text>
</g>
<!-- example.domain.model.kit&#45;&gt;example.domain.type -->
<g id="edge1" class="edge">
<title>example.domain.model.kit&#45;&gt;example.domain.type</title>
<path fill="none" stroke="black" d="M245,-96.83C245,-89.13 245,-79.97 245,-71.42"/>
<polygon fill="black" stroke="black" points="248.5,-71.41 245,-61.41 241.5,-71.41 248.5,-71.41"/>
</g>
</g>
</svg>
